# xmcd CD database file
#
# Track frame offsets:
#	187
#	104427
#	136547
#	165637
#
# Disc length: 2711 seconds
#
# Revision: 0
# Processed by: cddbd v1.5.1PL0 Copyright (c) Steve Scherf et al.
# Submitted via: CDex 1.51
#
DISCID=280a9504
DTITLE=Jackie McLean - Jackie McLean A Long Drink Of The Blues
DYEAR=1957
DGENRE=Jazz
TTITLE0=A Long Drink Of The Blues
TTITLE1=Embraceable You
TTITLE2=I Cover The Waterfront
TTITLE3=These Foolish Things
EXTD=YEAR: 1957
EXTT0=
EXTT1=
EXTT2=
EXTT3=
PLAYORDER=
